<?xml version="1.0" encoding="UTF-8"?>
<svg width="16px" height="14px" viewBox="0 0 16 14" version="1.1" xmlns="http://www.w3.org/2000/svg" xmlns:xlink="http://www.w3.org/1999/xlink">
    <!-- Generator: Sketch 63.1 (92452) - https://sketch.com -->
    <title>Color</title>
    <desc>Created with Sketch.</desc>
    <g id="Symbols" stroke="none" stroke-width="1" fill="none" fill-rule="evenodd">
        <g id="Layout-/-Icon-/-Camera" transform="translate(-4.000000, -5.000000)" fill="#6AC1FF">
            <path d="M19,15 L19,18 C19,18.55225 18.55225,19 18,19 L15,19 L15,17 L17,17 L17,15 L19,15 Z M7,15 L7,17 L9,17 L9,19 L6,19 C5.44775,19 5,18.55225 5,18 L5,15 L7,15 Z M20,11 L20,13 L4,13 L4,11 L20,11 Z M9,5 L9,7 L7,7 L7,9 L5,9 L5,6 C5,5.44775 5.44775,5 6,5 L9,5 Z M18,5 C18.55225,5 19,5.44775 19,6 L19,9 L17,9 L17,7 L15,7 L15,5 L18,5 Z" id="Color"></path>
        </g>
    </g>
</svg>