<svg width="37" height="32" viewBox="0 0 37 32" fill="none" xmlns="http://www.w3.org/2000/svg">
<path fill-rule="evenodd" clip-rule="evenodd" d="M9.10827 28.586C9.10668 28.2335 9.03966 27.8845 8.91069 27.5572L11.5719 24.8591C11.7812 24.6469 11.8989 24.3591 11.899 24.0589V18.4H25.2943V24.0589C25.2943 24.3591 25.412 24.6469 25.6213 24.8591L28.2825 27.5572C27.7914 28.814 28.2383 30.2477 29.3526 30.99C30.4669 31.7323 31.9422 31.5792 32.885 30.6233C33.8278 29.6674 33.9789 28.1716 33.2467 27.0418C32.5146 25.9121 31.1005 25.4589 29.8609 25.9569L27.5268 23.5904V18.4H31.4338C33.8817 18.4065 35.976 16.6189 36.3868 14.1722C36.7976 11.7254 35.4047 9.3359 33.0926 8.52081C33.097 8.41895 33.1082 8.31822 33.1082 8.2141C33.1071 5.00701 31.199 2.11696 28.275 0.89356C25.3511 -0.329844 21.988 0.354756 19.7564 2.62767V2.64238C18.54 3.88055 17.7624 5.49239 17.5451 7.22606C19.0697 7.56967 20.3843 8.5416 21.173 9.90836C21.443 10.4439 21.2527 11.1001 20.7397 11.4022C20.2266 11.7043 19.5702 11.5468 19.2452 11.0435C18.5736 9.84852 17.2529 9.18755 15.9089 9.37383C14.5648 9.5601 13.4675 10.5562 13.1369 11.8901C12.9944 12.4388 12.4731 12.7957 11.9178 12.7247C11.3625 12.6537 10.9449 12.1768 10.9412 11.6094C10.9405 11.5135 10.9525 11.418 10.9769 11.3253C11.5143 9.22042 13.1949 7.61463 15.2991 7.1955C15.528 4.90399 16.5189 2.75956 18.1088 1.11449C17.2481 0.578239 16.258 0.293499 15.2478 0.291687C13.372 0.291882 11.6221 1.24892 10.5918 2.83818C7.65461 2.02028 4.51635 3.00741 2.55151 5.36723C0.58667 7.72706 0.153412 11.0294 1.44149 13.8279C2.72958 16.6265 5.50419 18.411 8.55014 18.4H9.66641V23.5904L7.33228 25.9569C6.19156 25.5055 4.89385 25.8608 4.13228 26.833C3.37071 27.8052 3.32321 29.1672 4.01515 30.1915C4.70709 31.2158 5.97681 31.6631 7.14612 31.2945C8.31544 30.9259 9.11116 29.8275 9.10827 28.586Z" fill="#E10C0C" fill-opacity="0.9"/>
</svg>
