<?xml version="1.0" encoding="UTF-8"?>
<svg width="16px" height="8px" viewBox="0 0 16 8" version="1.1" xmlns="http://www.w3.org/2000/svg" xmlns:xlink="http://www.w3.org/1999/xlink">
    <!-- Generator: Sketch 63.1 (92452) - https://sketch.com -->
    <title>Path</title>
    <desc>Created with Sketch.</desc>
    <g id="Flows" stroke="none" stroke-width="1" fill="none" fill-rule="evenodd">
        <g id="Submarine" transform="translate(-1012.000000, -645.000000)" fill="#F2F2F2" fill-rule="nonzero">
            <g id="Group-22" transform="translate(708.000000, 208.000000)">
                <g id="Group-14" transform="translate(304.000000, 437.000000)">
                    <g id="Group-13">
                        <g id="Group-15">
                            <g id="Group-12" transform="translate(8.000000, 8.000000) rotate(-360.000000) translate(-8.000000, -8.000000) translate(0.000000, -0.000000)">
                                <path d="M1,5 L12.6,5 L11.3,6.3 C10.9,6.7 10.9,7.3 11.3,7.7 C11.5,7.9 11.7,8 12,8 C12.3,8 12.5,7.9 12.7,7.7 L15.7,4.7 C16.1,4.3 16.1,3.7 15.7,3.3 L12.7,0.3 C12.3,-0.1 11.7,-0.1 11.3,0.3 C10.9,0.7 10.9,1.3 11.3,1.7 L12.6,3 L1,3 C0.4,3 0,3.4 0,4 C0,4.6 0.4,5 1,5 Z" id="Path"></path>
                            </g>
                        </g>
                    </g>
                </g>
            </g>
        </g>
    </g>
</svg>