<svg width="32" height="27" viewBox="0 0 32 27" fill="none" xmlns="http://www.w3.org/2000/svg">
<path fill-rule="evenodd" clip-rule="evenodd" d="M30.6641 17.3332H29.3307V14.6665C29.3307 12.4612 27.5361 10.6665 25.3307 10.6665C23.1254 10.6665 21.3307 12.4612 21.3307 14.6665V17.3332H19.9974C19.2614 17.3332 18.6641 17.9292 18.6641 18.6665V25.3332C18.6641 26.0705 19.2614 26.6665 19.9974 26.6665H30.6641C31.4001 26.6665 31.9974 26.0705 31.9974 25.3332V18.6665C31.9974 17.9292 31.4001 17.3332 30.6641 17.3332ZM23.9974 14.6665C23.9974 13.9305 24.5961 13.3332 25.3307 13.3332C26.0654 13.3332 26.6641 13.9305 26.6641 14.6665V17.3332H23.9974V14.6665Z" fill="url(#paint0_linear)"/>
<path opacity="0.4" fill-rule="evenodd" clip-rule="evenodd" d="M26.6667 2.66667H5.33333V17.3333H2.66667V2.66667C2.66667 1.196 3.86267 0 5.33333 0H26.6667C28.1373 0 29.3333 1.196 29.3333 2.66667V8H26.6667V2.66667ZM5.33333 26.6667C2.392 26.6667 0 24.2747 0 21.3333V20H16V26.6667H5.33333Z" fill="white"/>
<defs>
<linearGradient id="paint0_linear" x1="18.6641" y1="10.6665" x2="18.6641" y2="26.6665" gradientUnits="userSpaceOnUse">
<stop stop-color="#FFE96D"/>
<stop offset="1" stop-color="#E1C218"/>
</linearGradient>
</defs>
</svg>
