<svg width="33" height="49" viewBox="0 0 33 49" fill="none" xmlns="http://www.w3.org/2000/svg">
<path fill-rule="evenodd" clip-rule="evenodd" d="M14.4618 28.7683L14.4583 28.7755L1.6716 28.7755C1.194 28.7755 0.796002 28.6288 0.477601 28.3354C0.1592 28.042 0 27.6735 0 27.2299C0 26.7576 0.202619 26.271 0.607856 25.7701L20.9494 0.932743C21.3257 0.446157 21.7418 0.152774 22.1976 0.0525945C22.6535 -0.0475854 23.0624 -0.00465132 23.4242 0.181397C23.786 0.367444 24.0393 0.671561 24.184 1.09375C24.3288 1.51593 24.2926 2.02041 24.0755 2.60718L17.4325 20.2317H18.5382L18.5417 20.2245L31.3284 20.2245C31.806 20.2245 32.204 20.3712 32.5224 20.6646C32.8408 20.958 33 21.3265 33 21.7701C33 22.2424 32.7974 22.729 32.3921 23.2299L12.0506 48.0673C11.6743 48.5538 11.2582 48.8472 10.8024 48.9474C10.3465 49.0476 9.93761 49.0047 9.57579 48.8186C9.21397 48.6326 8.9607 48.3284 8.81597 47.9063C8.67124 47.4841 8.70742 46.9796 8.92451 46.3928L15.5675 28.7683H14.4618Z" fill="url(#paint0_linear)"/>
<defs>
<linearGradient id="paint0_linear" x1="0" y1="0" x2="0" y2="49" gradientUnits="userSpaceOnUse">
<stop stop-color="#FFE96D"/>
<stop offset="1" stop-color="#E1C218"/>
</linearGradient>
</defs>
</svg>
