<svg width="16" height="16" viewBox="0 0 16 16" fill="none" xmlns="http://www.w3.org/2000/svg">
<path fill-rule="evenodd" clip-rule="evenodd" d="M16 1C16 1.6 15.6 2 15 2H14C14 4.4 13.3 6.5 12 8C13.2 9.4 13.9 11.5 14 14H15C15.6 14 16 14.4 16 15C16 15.6 15.6 16 15 16H1C0.4 16 0 15.6 0 15C0 14.4 0.4 14 1 14H2C2 11.6 2.8 9.4 4 8C2.8 6.5 2.1 4.4 2 2H1C0.4 2 0 1.6 0 1C0 0.4 0.4 0 1 0H15C15.6 0 16 0.4 16 1ZM9 8.1L9.9 7.3C11.2 6.1 11.9 4.2 12 2H4C4.1 4.2 4.8 6.1 6.1 7.3L7.1 8.1L6.1 8.8C4.9 9.7 4.1 11.7 4 14H12.1C12 11.7 11.2 9.7 10 8.8L9 8.1Z" fill="#0095FF"/>
</svg>
