<svg xmlns="http://www.w3.org/2000/svg" viewBox="0 0 641 137"><defs><style>.cls-1{fill:#f2f2f2;}.cls-2{fill:#f15a24;}</style></defs><g id="Layer_2" data-name="Layer 2"><g id="Layer_3" data-name="Layer 3"><path class="cls-1" d="M110.28,14.21A68.5,68.5,0,0,0,0,68.5v11L46.87,50.35l-10-8.19L13.45,56.74a56.3,56.3,0,0,1,108.84-4.86c.07.22,5.44-1.91,11.45-4.31A69.11,69.11,0,0,0,110.28,14.21Z"/><path class="cls-2" d="M90.21,81.52l14.07,6.74,19.57-9.54A56.29,56.29,0,0,1,13.94,82.37c0-.16-5.81,3.29-10.91,6.31A68.52,68.52,0,0,0,68.5,137,68.49,68.49,0,0,0,137,68.5V58.73Z"/><path class="cls-1" d="M201.35,49.43H150.77V136.6h8.83V111.85h41.75a13,13,0,0,0,13-13V62.45A13,13,0,0,0,201.35,49.43Zm4.2,49.4a4.27,4.27,0,0,1-4.2,4.19H163.9a4.28,4.28,0,0,1-4.3-4.19V62.45a4.29,4.29,0,0,1,4.3-4.2h37.45a4.28,4.28,0,0,1,4.2,4.2Z"/><path class="cls-1" d="M272.38,49.43H234.93a13,13,0,0,0-13,13V98.83a13,13,0,0,0,13,13h50.58V103H234.93a4.27,4.27,0,0,1-4.2-4.19V85.05h54.78V62.45A13,13,0,0,0,272.38,49.43Zm4.2,26.8H230.73V62.45a4.28,4.28,0,0,1,4.2-4.2h37.45a4.21,4.21,0,0,1,4.2,4.2Z"/><path class="cls-1" d="M347.28,49.43H296.7v62.42h8.82V62.45a4.3,4.3,0,0,1,4.31-4.2h37.45a4.28,4.28,0,0,1,4.2,4.2v49.4h8.82V62.45A13,13,0,0,0,347.28,49.43Z"/><path class="cls-2" d="M442.26,27.58H372v84.27h70.23a13.93,13.93,0,0,0,14-14V41.62A13.93,13.93,0,0,0,442.26,27.58Zm4.56,70.22a4.65,4.65,0,0,1-4.56,4.57H386.07a4.65,4.65,0,0,1-4.56-4.57V41.62a4.64,4.64,0,0,1,4.56-4.56h56.19a4.64,4.64,0,0,1,4.56,4.56Z"/><polygon class="cls-2" points="469.64 111.85 546.54 111.85 546.54 102.37 479.13 102.37 479.13 74.51 533.32 74.51 533.32 64.91 479.13 64.91 479.13 37.06 546.54 37.06 546.54 27.57 469.64 27.57 469.64 111.85"/><path class="cls-2" d="M605.53,69.71l35.35-42.13H628.71L599.45,62.34,570.07,27.58H557.9l35.34,42.13L557.9,111.85h12.17l29.38-34.76,29.26,34.76H641C629.29,98.15,616.89,83.41,605.53,69.71Z"/></g></g></svg>