<?xml version="1.0" encoding="utf-8"?>
<!-- Generator: Adobe Illustrator 25.0.0, SVG Export Plug-In . SVG Version: 6.00 Build 0)  -->
<svg version="1.1" id="Layer_1" xmlns="http://www.w3.org/2000/svg" xmlns:xlink="http://www.w3.org/1999/xlink" x="0px" y="0px"
	 viewBox="0 0 247 192" style="enable-background:new 0 0 247 192;" xml:space="preserve">
<style type="text/css">
	.st0{fill:#F7941F;}
	.st1{fill:#FFFFFF;}
</style>
<g>
	<g id="Flows_1_">
		<g id="Submarine_1_" transform="translate(-760.000000, -641.000000)">
			<g id="Group-22_1_" transform="translate(708.000000, 208.000000)">
				<g id="Group_1_" transform="translate(40.000000, 421.000000)">
					<g id="Group-6_1_" transform="translate(12.000000, 12.000000)">
						<path id="Path_1_" class="st0" d="M244.13,119.22c-12.82,51.43-64.91,82.73-116.34,69.9C76.37,176.3,45.07,124.21,57.9,72.79
							C70.71,21.35,122.8-9.95,174.22,2.87C225.65,15.69,256.95,67.79,244.13,119.22L244.13,119.22z"/>
						<path id="Shape_1_" class="st1" d="M193.34,82.32c1.91-12.77-7.81-19.64-21.11-24.22l4.31-17.3L166,38.17l-4.2,16.85
							c-2.77-0.69-5.61-1.34-8.44-1.99l4.23-16.96l-10.53-2.62l-4.32,17.3c-2.29-0.52-4.54-1.04-6.73-1.58l0.01-0.05l-14.53-3.63
							l-2.8,11.25c0,0,7.81,1.79,7.65,1.9c4.27,1.06,5.04,3.89,4.91,6.13l-4.91,19.71c0.29,0.07,0.67,0.18,1.09,0.35
							c-0.35-0.09-0.73-0.18-1.11-0.28l-6.89,27.61c-0.52,1.3-1.84,3.24-4.83,2.5c0.1,0.15-7.66-1.91-7.66-1.91l-5.23,12.06
							l13.71,3.42c2.55,0.64,5.05,1.31,7.51,1.94l-4.36,17.5l10.52,2.62l4.32-17.32c2.87,0.78,5.66,1.5,8.39,2.18l-4.3,17.23
							l10.53,2.62l4.36-17.47c17.96,3.4,31.47,2.03,37.15-14.22c4.58-13.08-0.23-20.62-9.68-25.54
							C186.77,96.2,191.95,91.67,193.34,82.32L193.34,82.32z M169.27,116.07c-3.25,13.08-25.28,6.01-32.42,4.24l5.78-23.19
							C149.78,98.9,172.67,102.43,169.27,116.07z M172.53,82.13c-2.97,11.9-21.3,5.85-27.25,4.37l5.24-21.03
							C156.47,66.96,175.62,69.72,172.53,82.13z"/>
					</g>
				</g>
			</g>
		</g>
	</g>
</g>
</svg>
