<svg width="131" height="43" viewBox="0 0 131 43" fill="none" xmlns="http://www.w3.org/2000/svg">
<path d="M0.92 42H20.408C28.08 42 32.896 37.856 32.896 30.688C32.896 25.536 30.824 22.736 27.632 21.224V21C29.592 19.6 31.44 17.248 31.44 12.992C31.44 6.552 26.68 2.8 19.68 2.8H0.92V42ZM9.656 17.92V10.528H18.392C21.36 10.528 22.536 12.096 22.536 14.224C22.536 16.352 21.36 17.92 18.392 17.92H9.656ZM9.656 34.216V25.536H18.952C22.76 25.536 23.936 27.888 23.936 29.848C23.936 32.2 22.704 34.216 18.952 34.216H9.656ZM50.3129 42.504C59.8329 42.504 64.9289 36.12 64.9289 27.384C64.9289 18.592 59.7209 12.208 50.3129 12.208C40.9049 12.208 35.6969 18.592 35.6969 27.384C35.6969 36.176 40.7929 42.504 50.3129 42.504ZM50.3129 34.944C46.7849 34.944 44.4889 32.704 44.4889 27.384C44.4889 22.12 46.7289 19.768 50.3129 19.768C53.8969 19.768 56.1369 22.064 56.1369 27.384C56.1369 32.704 53.8969 34.944 50.3129 34.944ZM69.1438 42H77.7678V0.559999H69.1438V42ZM95.6956 42.504C98.4396 42.504 100.736 42 101.632 41.664V34.496H101.072C100.176 34.832 99.2236 35 98.2716 35C95.6956 35 94.5196 33.824 94.5196 31.08V20.048H101.52V12.712H94.5196V5.04H93.9596L86.2876 6.608V12.712H81.1356V20.048H85.8956V33.152C85.8956 38.472 88.9196 42.504 95.6956 42.504ZM106.093 42H130.285V34.664H116.733V34.44L130.173 19.992V12.712H106.149V20.048H119.589V20.272L106.093 34.776V42Z" fill="url(#paint0_linear)"/>
<defs>
<linearGradient id="paint0_linear" x1="-3" y1="-11" x2="-3" y2="56" gradientUnits="userSpaceOnUse">
<stop stop-color="#FFE96D"/>
<stop offset="1" stop-color="#E1C218"/>
</linearGradient>
</defs>
</svg>
