<svg width="24" height="24" viewBox="0 0 24 24" fill="none" xmlns="http://www.w3.org/2000/svg">
<path fill-rule="evenodd" clip-rule="evenodd" d="M8.5 4C9.6 4 10.6 4.4 11.3 5C8.1 5.3 5.5 7.5 4.4 10.4C4.2 9.8 4 9.2 4 8.5C4 6 6 4 8.5 4ZM15.5 4C14.4 4 13.4 4.4 12.7 5C15.9 5.3 18.6 7.4 19.6 10.4C19.8 9.8 20 9.2 20 8.5C20 6 18 4 15.5 4ZM18 13C18 14.3 17.6 15.5 16.9 16.5L18.7 18.3C19.1 18.7 19.1 19.3 18.7 19.7C18.5 19.9 18.2 20 18 20C17.8 20 17.5 19.9 17.3 19.7L15.5 17.9C14.5 18.6 13.3 19 12 19C10.7 19 9.5 18.6 8.5 17.9L6.7 19.7C6.5 19.9 6.3 20 6 20C5.7 20 5.5 19.9 5.3 19.7C4.9 19.3 4.9 18.7 5.3 18.3L7.1 16.5C6.4 15.5 6 14.3 6 13C6 9.7 8.7 7 12 7C15.3 7 18 9.7 18 13ZM11 10V14H15V12H13V10H11Z" fill="#666666"/>
</svg>
