<svg width="275" height="188" viewBox="0 0 275 188" fill="none" xmlns="http://www.w3.org/2000/svg">
<g filter="url(#filter0_bddd)">
<rect x="14" y="12" width="247" height="160" rx="12" fill="white" fill-opacity="0.6"/>
</g>
<g filter="url(#filter1_b)">
<rect x="20" y="18" width="235" height="148" rx="5.8" fill="white" fill-opacity="0.8"/>
</g>
<path d="M55.7978 122.144C58.7258 122.144 60.1978 120.832 60.1978 118.832C60.1978 116.912 58.8858 115.936 56.8058 115.504L55.2858 115.184C54.1658 114.944 53.6538 114.496 53.6538 113.792C53.6538 112.864 54.3898 112.352 55.7818 112.352C57.3338 112.352 58.0378 113.104 58.1018 114.128H60.0058C59.9898 112.064 58.2778 110.656 55.8138 110.656C53.2698 110.656 51.7178 111.904 51.7178 113.792C51.7178 115.68 52.9658 116.544 54.9018 116.96L56.5338 117.312C57.6538 117.552 58.2618 117.984 58.2618 118.864C58.2618 119.904 57.4778 120.464 55.7978 120.464C54.2778 120.464 53.3498 119.744 53.2538 118.432H51.3498C51.4458 120.672 52.9658 122.144 55.7978 122.144ZM65.3952 122.144C67.3632 122.144 68.7552 120.992 68.9792 119.488H67.2032C67.0112 120.16 66.4032 120.608 65.3952 120.608C64.0512 120.608 63.3792 119.696 63.3792 118.384H69.0912V117.616C69.0912 115.344 67.7792 113.6 65.3632 113.6C62.7552 113.6 61.4912 115.504 61.4912 117.872C61.4912 120.272 62.8832 122.144 65.3952 122.144ZM63.3952 117.088C63.4432 116.016 64.0352 115.152 65.3632 115.152C66.6112 115.152 67.2032 116 67.2192 117.088H63.3952ZM74.2546 122.144C76.2226 122.144 77.6146 120.992 77.8386 119.488H76.0626C75.8706 120.16 75.2626 120.608 74.2546 120.608C72.9106 120.608 72.2386 119.696 72.2386 118.384H77.9506V117.616C77.9506 115.344 76.6386 113.6 74.2226 113.6C71.6146 113.6 70.3506 115.504 70.3506 117.872C70.3506 120.272 71.7426 122.144 74.2546 122.144ZM72.2546 117.088C72.3026 116.016 72.8946 115.152 74.2226 115.152C75.4706 115.152 76.0626 116 76.0786 117.088H72.2546ZM86.7462 122.144C87.8502 122.144 88.6982 121.728 89.1782 121.024H89.2422L89.3702 122H90.9702V116.496C90.9702 114.864 89.7382 113.6 87.5622 113.6C85.4822 113.6 84.2502 114.768 84.2502 116.336H85.9782C85.9942 115.664 86.5222 115.104 87.5302 115.104C88.6822 115.104 89.1622 115.744 89.1622 116.512V117.28C88.7302 117.152 87.9942 117.008 87.2422 117.008C84.8742 117.008 83.8662 118.128 83.8662 119.568C83.8662 121.024 84.9222 122.144 86.7462 122.144ZM87.1622 120.688C86.1702 120.688 85.6902 120.176 85.6902 119.504C85.6902 118.768 86.2662 118.32 87.3702 118.32C87.9782 118.32 88.5542 118.4 89.1622 118.608V118.88C89.1622 119.856 88.3782 120.688 87.1622 120.688ZM93.1446 122H94.9686V117.44C94.9686 116.064 95.7046 115.248 96.8566 115.248C98.0086 115.248 98.5366 115.904 98.5366 117.056V122H100.361V116.608C100.361 114.736 99.2246 113.6 97.3846 113.6C96.2006 113.6 95.4166 114.112 94.9686 114.816H94.9046L94.7606 113.744H93.1446V122ZM110.551 122.144C112.519 122.144 113.911 120.992 114.135 119.488H112.359C112.167 120.16 111.559 120.608 110.551 120.608C109.207 120.608 108.535 119.696 108.535 118.384H114.247V117.616C114.247 115.344 112.935 113.6 110.519 113.6C107.911 113.6 106.647 115.504 106.647 117.872C106.647 120.272 108.039 122.144 110.551 122.144ZM108.551 117.088C108.599 116.016 109.191 115.152 110.519 115.152C111.767 115.152 112.359 116 112.375 117.088H108.551ZM114.856 122H116.84L118.792 118.992H118.856L120.776 122H122.76V121.84L120.04 117.824L122.68 113.904V113.744H120.712L118.856 116.672H118.792L116.92 113.744H114.952V113.904L117.592 117.84L114.856 121.84V122ZM126.449 122.144C127.553 122.144 128.401 121.728 128.881 121.024H128.945L129.073 122H130.673V116.496C130.673 114.864 129.441 113.6 127.265 113.6C125.185 113.6 123.953 114.768 123.953 116.336H125.681C125.697 115.664 126.225 115.104 127.233 115.104C128.385 115.104 128.865 115.744 128.865 116.512V117.28C128.433 117.152 127.697 117.008 126.945 117.008C124.577 117.008 123.569 118.128 123.569 119.568C123.569 121.024 124.625 122.144 126.449 122.144ZM126.865 120.688C125.873 120.688 125.393 120.176 125.393 119.504C125.393 118.768 125.969 118.32 127.073 118.32C127.681 118.32 128.257 118.4 128.865 118.608V118.88C128.865 119.856 128.081 120.688 126.865 120.688ZM142.16 113.6C140.848 113.6 140.016 114.192 139.584 114.896H139.536C139.072 114.064 138.208 113.6 137.056 113.6C135.856 113.6 135.12 114.112 134.672 114.816H134.608L134.464 113.744H132.848V122H134.672V117.44C134.672 116.064 135.408 115.248 136.512 115.248C137.648 115.248 138.112 115.936 138.112 117.056V122H139.92V117.44C139.92 116.064 140.576 115.248 141.68 115.248C142.816 115.248 143.28 115.936 143.28 117.056V122H145.104V116.608C145.104 114.752 143.984 113.6 142.16 113.6ZM147.285 125.664H149.109V121.008H149.173C149.589 121.632 150.325 122.144 151.525 122.144C153.749 122.144 154.965 120.336 154.965 117.872C154.965 115.296 153.653 113.6 151.525 113.6C150.325 113.6 149.589 114.112 149.173 114.736H149.109L148.901 113.744H147.285V125.664ZM151.077 120.528C149.621 120.528 149.045 119.296 149.045 117.872C149.045 116.448 149.621 115.216 151.077 115.216C152.565 115.216 153.125 116.432 153.125 117.872C153.125 119.312 152.581 120.528 151.077 120.528ZM156.77 122H158.594V110.16H156.77V122ZM164.13 122.144C166.098 122.144 167.49 120.992 167.714 119.488H165.938C165.746 120.16 165.138 120.608 164.13 120.608C162.786 120.608 162.114 119.696 162.114 118.384H167.826V117.616C167.826 115.344 166.514 113.6 164.098 113.6C161.49 113.6 160.226 115.504 160.226 117.872C160.226 120.272 161.618 122.144 164.13 122.144ZM162.13 117.088C162.178 116.016 162.77 115.152 164.098 115.152C165.346 115.152 165.938 116 165.954 117.088H162.13ZM177.645 122.144C180.269 122.144 181.549 120.288 181.549 117.872C181.549 115.456 180.237 113.6 177.645 113.6C175.053 113.6 173.741 115.456 173.741 117.872C173.741 120.304 175.021 122.144 177.645 122.144ZM177.645 120.528C176.269 120.528 175.597 119.536 175.597 117.872C175.597 116.24 176.253 115.216 177.645 115.216C179.037 115.216 179.693 116.224 179.693 117.872C179.693 119.536 179.037 120.528 177.645 120.528ZM184.052 122H185.876V115.28H187.86V113.744H185.876V112.736C185.876 111.936 186.34 111.568 187.14 111.568C187.396 111.568 187.684 111.6 187.94 111.648V110.112C187.652 110.048 187.348 110 186.916 110C185.236 110 184.052 111.056 184.052 112.736V113.744H182.596V115.28H184.052V122ZM194.316 122H196.14V117.456C196.14 116.08 196.94 115.248 198.076 115.248C199.228 115.248 199.772 115.904 199.772 117.056V122H201.596V116.608C201.596 114.736 200.444 113.6 198.604 113.6C197.42 113.6 196.652 114.112 196.204 114.816H196.14V110.16H194.316V122ZM207.13 122.144C209.754 122.144 211.034 120.288 211.034 117.872C211.034 115.456 209.722 113.6 207.13 113.6C204.538 113.6 203.226 115.456 203.226 117.872C203.226 120.304 204.506 122.144 207.13 122.144ZM207.13 120.528C205.754 120.528 205.082 119.536 205.082 117.872C205.082 116.24 205.738 115.216 207.13 115.216C208.522 115.216 209.178 116.224 209.178 117.872C209.178 119.536 208.522 120.528 207.13 120.528ZM214.112 122H216.304L217.952 115.92H218.016L219.6 122H221.792L223.984 113.904V113.744H222.176L220.704 119.824H220.64L219.056 113.744H216.864L215.28 119.824H215.216L213.744 113.744H211.92V113.904L214.112 122ZM109.939 136.48C110.691 136.48 111.107 136.032 111.107 135.328C111.107 134.624 110.691 134.192 109.939 134.192C109.171 134.192 108.771 134.624 108.771 135.328C108.771 136.032 109.171 136.48 109.939 136.48ZM109.027 146H110.851V137.744H109.027V146ZM116.163 146.144C116.787 146.144 117.315 146.048 117.571 145.968V144.432H117.411C117.203 144.496 116.947 144.544 116.611 144.544C115.875 144.544 115.539 144.208 115.539 143.424V139.296H117.539V137.744H115.539V135.552H115.379L113.795 136V137.744H112.355V139.296H113.715V143.744C113.715 145.168 114.403 146.144 116.163 146.144ZM125.401 146H127.593L129.241 139.92H129.305L130.889 146H133.081L135.273 137.904V137.744H133.465L131.993 143.824H131.929L130.345 137.744H128.153L126.569 143.824H126.505L125.033 137.744H123.209V137.904L125.401 146ZM140.059 146.144C142.683 146.144 143.963 144.288 143.963 141.872C143.963 139.456 142.651 137.6 140.059 137.6C137.467 137.6 136.155 139.456 136.155 141.872C136.155 144.304 137.435 146.144 140.059 146.144ZM140.059 144.528C138.683 144.528 138.011 143.536 138.011 141.872C138.011 140.24 138.667 139.216 140.059 139.216C141.451 139.216 142.107 140.224 142.107 141.872C142.107 143.536 141.451 144.528 140.059 144.528ZM145.762 146H147.522V141.968C147.522 140.288 148.242 139.328 149.634 139.328H150.338V137.632H149.666C148.626 137.632 147.858 138.208 147.522 139.056H147.458L147.298 137.744H145.762V146ZM155.66 141.488L159.004 137.904V137.744H156.86L153.756 141.104V134.16H151.996V146H153.756V141.936L156.972 146H159.132V145.84L155.66 141.488ZM163.097 146.144C165.017 146.144 166.521 145.248 166.521 143.648C166.521 142.08 165.561 141.488 164.121 141.184L162.713 140.912C162.025 140.8 161.625 140.512 161.625 140.016C161.625 139.408 162.185 139.072 163.001 139.072C163.945 139.072 164.505 139.552 164.537 140.304H166.329C166.329 138.704 165.017 137.6 163.033 137.6C161.033 137.6 159.849 138.64 159.849 140C159.849 141.408 160.793 142.16 162.137 142.432L163.593 142.704C164.345 142.864 164.681 143.184 164.681 143.648C164.681 144.224 164.137 144.576 163.097 144.576C162.057 144.576 161.417 144.064 161.417 143.248H159.593C159.641 144.992 160.873 146.144 163.097 146.144Z" fill="#999999"/>
<g filter="url(#filter2_dd)">
<path fill-rule="evenodd" clip-rule="evenodd" d="M138 92C151.255 92 162 81.2548 162 68C162 54.7452 151.255 44 138 44C124.745 44 114 54.7452 114 68C114 81.2548 124.745 92 138 92Z" fill="#0095FF"/>
</g>
<path fill-rule="evenodd" clip-rule="evenodd" d="M134 60.9148C134 59.6947 135.379 58.985 136.372 59.6942L146.291 66.7794C147.129 67.3776 147.129 68.6224 146.291 69.2206L136.372 76.3058C135.379 77.015 134 76.3053 134 75.0852V60.9148Z" fill="white"/>
<defs>
<filter id="filter0_bddd" x="0" y="0" width="275" height="188" filterUnits="userSpaceOnUse" color-interpolation-filters="sRGB">
<feFlood flood-opacity="0" result="BackgroundImageFix"/>
<feGaussianBlur in="BackgroundImage" stdDeviation="2.71828"/>
<feComposite in2="SourceAlpha" operator="in" result="effect1_backgroundBlur"/>
<feColorMatrix in="SourceAlpha" type="matrix" values="0 0 0 0 0 0 0 0 0 0 0 0 0 0 0 0 0 0 127 0"/>
<feOffset dy="2"/>
<feGaussianBlur stdDeviation="7"/>
<feColorMatrix type="matrix" values="0 0 0 0 0 0 0 0 0 0 0 0 0 0 0 0 0 0 0.0543597 0"/>
<feBlend mode="normal" in2="effect1_backgroundBlur" result="effect2_dropShadow"/>
<feColorMatrix in="SourceAlpha" type="matrix" values="0 0 0 0 0 0 0 0 0 0 0 0 0 0 0 0 0 0 127 0"/>
<feOffset dy="1"/>
<feGaussianBlur stdDeviation="2"/>
<feColorMatrix type="matrix" values="0 0 0 0 0 0 0 0 0 0 0 0 0 0 0 0 0 0 0.131365 0"/>
<feBlend mode="normal" in2="effect2_dropShadow" result="effect3_dropShadow"/>
<feColorMatrix in="SourceAlpha" type="matrix" values="0 0 0 0 0 0 0 0 0 0 0 0 0 0 0 0 0 0 127 0"/>
<feOffset/>
<feGaussianBlur stdDeviation="0.5"/>
<feColorMatrix type="matrix" values="0 0 0 0 0 0 0 0 0 0 0 0 0 0 0 0 0 0 0.34 0"/>
<feBlend mode="normal" in2="effect3_dropShadow" result="effect4_dropShadow"/>
<feBlend mode="normal" in="SourceGraphic" in2="effect4_dropShadow" result="shape"/>
</filter>
<filter id="filter1_b" x="6.40859" y="4.40859" width="262.183" height="175.183" filterUnits="userSpaceOnUse" color-interpolation-filters="sRGB">
<feFlood flood-opacity="0" result="BackgroundImageFix"/>
<feGaussianBlur in="BackgroundImage" stdDeviation="6.7957"/>
<feComposite in2="SourceAlpha" operator="in" result="effect1_backgroundBlur"/>
<feBlend mode="normal" in="SourceGraphic" in2="effect1_backgroundBlur" result="shape"/>
</filter>
<filter id="filter2_dd" x="111" y="42" width="54" height="54" filterUnits="userSpaceOnUse" color-interpolation-filters="sRGB">
<feFlood flood-opacity="0" result="BackgroundImageFix"/>
<feColorMatrix in="SourceAlpha" type="matrix" values="0 0 0 0 0 0 0 0 0 0 0 0 0 0 0 0 0 0 127 0"/>
<feOffset dy="1"/>
<feGaussianBlur stdDeviation="1.5"/>
<feColorMatrix type="matrix" values="0 0 0 0 0 0 0 0 0 0.235294 0 0 0 0 0.403922 0 0 0 0.03 0"/>
<feBlend mode="normal" in2="BackgroundImageFix" result="effect1_dropShadow"/>
<feColorMatrix in="SourceAlpha" type="matrix" values="0 0 0 0 0 0 0 0 0 0 0 0 0 0 0 0 0 0 127 0"/>
<feOffset dy="1"/>
<feGaussianBlur stdDeviation="1.5"/>
<feColorMatrix type="matrix" values="0 0 0 0 0 0 0 0 0 0.237162 0 0 0 0 0.405882 0 0 0 0.166712 0"/>
<feBlend mode="normal" in2="effect1_dropShadow" result="effect2_dropShadow"/>
<feBlend mode="normal" in="SourceGraphic" in2="effect2_dropShadow" result="shape"/>
</filter>
</defs>
</svg>
