<svg width="30" height="33" viewBox="0 0 30 33" fill="none" xmlns="http://www.w3.org/2000/svg">
<path fill-rule="evenodd" clip-rule="evenodd" d="M29.0667 14.6113C29.0667 12.587 28.0163 10.8054 26.4242 9.75819V2.93271C26.4242 1.86217 25.5324 0.98628 24.4424 0.98628C23.3524 0.98628 22.4606 1.86217 22.4606 2.93271V8.83688C22.0021 8.88748 21.5609 8.98221 21.1394 9.12884V2.93271C21.1394 1.86217 20.2476 0.98628 19.1576 0.98628C18.0676 0.98628 17.1758 1.86217 17.1758 2.93271V15.2601C11.632 15.2601 6.98657 18.992 5.67064 24.0346C5.07081 23.426 4.23316 23.0458 3.30303 23.0458C1.47844 23.0458 0 24.4978 0 26.2899C0 28.0819 1.47844 29.5339 3.30303 29.5339C4.04952 29.5339 4.73126 29.2809 5.28485 28.8708V32.1291H21.1394C21.1394 30.0555 19.4839 28.3764 17.403 28.2583L22.417 25.1804L24.7754 32.1291H28.953L24.8903 20.1573C27.3042 19.4151 29.0667 17.2273 29.0667 14.6113ZM23.8762 15.5196C23.3032 15.5196 22.8381 15.0545 22.8381 14.4815C22.8381 13.9085 23.3032 13.4434 23.8762 13.4434C24.4492 13.4434 24.9143 13.9085 24.9143 14.4815C24.9143 15.0545 24.4492 15.5196 23.8762 15.5196Z" fill="url(#paint0_linear)"/>
<defs>
<linearGradient id="paint0_linear" x1="0" y1="1.36377" x2="0" y2="32.5066" gradientUnits="userSpaceOnUse">
<stop stop-color="#FFE96D"/>
<stop offset="1" stop-color="#E1C218"/>
</linearGradient>
</defs>
</svg>
