<svg width="16" height="12" viewBox="0 0 16 12" fill="none" xmlns="http://www.w3.org/2000/svg">
<path fill-rule="evenodd" clip-rule="evenodd" d="M0 1C0 0.58579 0.33579 0.25 0.75 0.25H15.25C15.6642 0.25 16 0.58579 16 1C16 1.41421 15.6642 1.75 15.25 1.75H0.75C0.33579 1.75 0 1.41421 0 1ZM0 6C0 5.5858 0.33579 5.25 0.75 5.25H15.25C15.6642 5.25 16 5.5858 16 6C16 6.4142 15.6642 6.75 15.25 6.75H0.75C0.33579 6.75 0 6.4142 0 6ZM0.75 10.25C0.33579 10.25 0 10.5858 0 11C0 11.4142 0.33579 11.75 0.75 11.75H15.25C15.6642 11.75 16 11.4142 16 11C16 10.5858 15.6642 10.25 15.25 10.25H0.75Z" fill="white"/>
</svg>