<?xml version="1.0" encoding="UTF-8"?>
<svg width="16px" height="8px" viewBox="0 0 16 8" version="1.1" xmlns="http://www.w3.org/2000/svg" xmlns:xlink="http://www.w3.org/1999/xlink">
    <!-- Generator: Sketch 63.1 (92452) - https://sketch.com -->
    <title>Path</title>
    <desc>Created with Sketch.</desc>
    <g id="Flows" stroke="none" stroke-width="1" fill="none" fill-rule="evenodd">
        <g id="Submarine" transform="translate(-1012.000000, -653.000000)" fill="#F2F2F2" fill-rule="nonzero">
            <g id="Group-22" transform="translate(708.000000, 208.000000)">
                <g id="Group-14" transform="translate(304.000000, 437.000000)">
                    <g id="Group-13">
                        <g id="Group-15">
                            <g id="Group-12" transform="translate(8.000000, 8.000000) rotate(-360.000000) translate(-8.000000, -8.000000) translate(0.000000, -0.000000)">
                                <path d="M15,11 L3.4,11 L4.7,9.7 C5.1,9.3 5.1,8.7 4.7,8.3 C4.3,7.9 3.7,7.9 3.3,8.3 L0.3,11.3 C-0.1,11.7 -0.1,12.3 0.3,12.7 L3.3,15.7 C3.5,15.9 3.7,16 4,16 C4.3,16 4.5,15.9 4.7,15.7 C5.1,15.3 5.1,14.7 4.7,14.3 L3.4,13 L15,13 C15.6,13 16,12.6 16,12 C16,11.4 15.6,11 15,11 Z" id="Path"></path>
                            </g>
                        </g>
                    </g>
                </g>
            </g>
        </g>
    </g>
</svg>