<svg width="185" height="40" viewBox="0 0 185 40" fill="none" xmlns="http://www.w3.org/2000/svg">
<path d="M18.693 0.599998H10.251L0.170977 29.58V30H7.14298L8.86498 24.414H19.785L21.507 30H28.815V29.58L18.693 0.599998ZM10.671 18.618L14.241 7.194H14.409L17.979 18.618H10.671ZM33.7657 30H42.2917L45.4417 14.964H45.6097L48.6337 30H57.1597L62.5357 8.454V8.034H56.2357L52.9177 23.07H52.7497L49.8097 8.034H41.1577L38.2177 23.07H38.0497L34.7317 8.034H28.3897V8.454L33.7657 30ZM61.3683 36.048H66.3243L69.7683 25.674V25.254H62.6703L61.3683 35.628V36.048ZM93.4376 30.378C99.0236 30.378 103.056 27.9 103.056 23.364C103.056 18.744 99.9056 17.19 96.5456 16.56L92.3456 15.762C91.2956 15.552 90.7076 15.09 90.7076 14.25C90.7076 13.41 91.6736 12.738 93.2696 12.738C95.4536 12.738 96.2096 13.998 96.1676 15.006H102.552C102.552 10.932 99.1076 7.656 93.3956 7.656C87.5156 7.656 84.3656 10.596 84.3656 14.166C84.3656 18.576 87.5576 20.382 91.0856 21.054L94.3196 21.684C95.8316 21.978 96.5456 22.44 96.5456 23.406C96.5456 24.162 95.7476 25.002 93.4376 25.002C91.1276 25.002 90.1616 23.784 90.1616 22.566H83.6936C83.8196 27.06 86.5916 30.378 93.4376 30.378ZM106.195 30H112.663V17.82C112.663 15.174 114.343 13.536 116.653 13.536C119.215 13.536 120.349 15.048 120.349 17.568V30H126.817V15.552C126.817 10.68 123.541 7.656 118.669 7.656C115.813 7.656 113.881 8.706 112.663 10.134H112.495L111.991 8.034H106.195V30ZM137.235 30.378C139.965 30.378 141.897 29.412 143.115 28.026H143.283L143.745 30H149.541V15.552C149.541 10.974 145.929 7.656 139.923 7.656C133.455 7.656 130.473 11.184 130.473 15.3H136.521C136.521 13.956 137.697 12.864 139.713 12.864C142.107 12.864 143.073 14.04 143.073 15.552V17.358C142.191 17.064 140.007 16.728 138.369 16.728C132.321 16.728 129.549 19.416 129.549 23.49C129.549 27.396 132.279 30.378 137.235 30.378ZM138.873 25.338C136.941 25.338 135.933 24.414 135.933 23.154C135.933 21.978 137.025 21.054 139.125 21.054C140.385 21.054 141.729 21.222 143.073 21.768V21.978C143.073 23.784 141.519 25.338 138.873 25.338ZM153.322 39.618H159.79V27.9H159.958C161.008 29.16 162.688 30.378 165.796 30.378C171.34 30.378 174.7 25.59 174.7 19.038C174.7 12.444 171.256 7.656 165.796 7.656C162.688 7.656 161.008 8.874 159.958 10.134H159.79L159.118 8.034H153.322V39.618ZM163.822 24.708C160.546 24.708 159.496 22.104 159.496 19.038C159.496 15.972 160.63 13.326 163.822 13.326C167.014 13.326 168.148 15.972 168.148 19.038C168.148 22.104 167.098 24.708 163.822 24.708ZM178.479 20.676H183.393L184.485 4.632V0.599998H177.597V4.632L178.479 20.676ZM180.999 30.378C183.393 30.378 184.779 28.95 184.779 26.598C184.779 24.288 183.393 22.86 180.999 22.86C178.521 22.86 177.219 24.288 177.219 26.598C177.219 28.95 178.521 30.378 180.999 30.378Z" fill="#F76F68"/>
</svg>
