<?xml version="1.0" encoding="utf-8"?>
<!-- Generator: Adobe Illustrator 25.0.0, SVG Export Plug-In . SVG Version: 6.00 Build 0)  -->
<svg version="1.1" id="Layer_1" xmlns="http://www.w3.org/2000/svg" xmlns:xlink="http://www.w3.org/1999/xlink" x="0px" y="0px"
	 viewBox="0 0 247 192" style="enable-background:new 0 0 247 192;" xml:space="preserve">
<style type="text/css">
	.st0{fill:#53AE94;}
	.st1{fill:#FFFFFF;}
</style>
<g>
	<path class="st0" d="M151,0c53.02,0,96,42.98,96,96c0,53.02-42.98,96-96,96c-53.02,0-96-42.97-96-96C55,42.97,97.98,0,151,0z"/>
	<path class="st1" d="M162.85,83.21V68.93h32.66V47.17h-88.93v21.76h32.66V83.2c-26.54,1.22-46.5,6.48-46.5,12.77
		s19.97,11.55,46.5,12.78v45.74h23.62v-45.75c26.5-1.22,46.41-6.48,46.41-12.77S189.35,84.44,162.85,83.21L162.85,83.21z
		 M162.86,104.87v-0.01c-0.67,0.04-4.09,0.25-11.71,0.25c-6.09,0-10.38-0.17-11.89-0.25v0.02c-23.45-1.04-40.96-5.12-40.96-10.01
		c0-4.89,17.51-8.96,40.96-10v15.95c1.54,0.11,5.93,0.36,11.99,0.36c7.28,0,10.94-0.3,11.62-0.36V84.86
		c23.4,1.04,40.87,5.13,40.87,10C203.73,99.73,186.26,103.82,162.86,104.87"/>
</g>
</svg>
