<?xml version="1.0" encoding="utf-8"?>
<!-- Generator: Adobe Illustrator 25.0.0, SVG Export Plug-In . SVG Version: 6.00 Build 0)  -->
<svg version="1.1" id="Layer_1" xmlns="http://www.w3.org/2000/svg" xmlns:xlink="http://www.w3.org/1999/xlink" x="0px" y="0px"
	 viewBox="0 0 247 192" style="enable-background:new 0 0 247 192;" xml:space="preserve">
<style type="text/css">
	.st0{fill-rule:evenodd;clip-rule:evenodd;fill:#CBC6C6;}
	.st1{fill-rule:evenodd;clip-rule:evenodd;fill:#FFFFFF;}
	.st2{fill-rule:evenodd;clip-rule:evenodd;fill:#E1C218;stroke:#FFFFFF;stroke-width:14.4;}
</style>
<g>
	<circle class="st0" cx="151" cy="96" r="96"/>
	<path class="st1" d="M117.6,115.3l-8.6,3.3l4.1-16.6l8.7-3.5L134.3,48h30.8l-9.1,37.2l8.5-3.4l-4.1,16.5l-8.6,3.4l-5.1,20.9H193
		l-5.2,21.4h-77.3L117.6,115.3z"/>
</g>
<path id="Path" class="st2" d="M42.1,115.2H19c-4.3,0-8.2-2.4-10-6.3c-1.9-3.8-1.4-8.3,1.1-11.7l39.5-52c3-4,8.4-5.5,13.1-3.6
	c4.6,1.9,7.4,6.6,6.9,11.6l-2.6,23.6h23.1c4.3,0,8.2,2.4,10,6.3c1.8,3.8,1.4,8.3-1.2,11.7l-39.5,52c-2.1,2.8-5.4,4.4-8.9,4.4
	c-1.4,0-2.9-0.3-4.2-0.8c-4.6-1.9-7.4-6.6-6.9-11.6L42.1,115.2z"/>
</svg>
