<?xml version="1.0" encoding="utf-8"?>
<!-- Generator: Adobe Illustrator 25.0.0, SVG Export Plug-In . SVG Version: 6.00 Build 0)  -->
<svg version="1.1" id="Layer_1" xmlns="http://www.w3.org/2000/svg" xmlns:xlink="http://www.w3.org/1999/xlink" x="0px" y="0px"
	 viewBox="0 0 247 192" style="enable-background:new 0 0 247 192;" xml:space="preserve">
<style type="text/css">
	.st0{fill:#F7931A;}
	.st1{fill:#FFFFFF;}
	.st2{fill:#E1C218;stroke:#FFFFFF;stroke-width:14.4;}
</style>
<g id="Logo">
	<g id="Group-4" transform="translate(15.000000, 0.000000)">
		<g id="Group-6" transform="translate(40.000000, 0.000000)">
			<path id="Path" class="st0" d="M189.1,119.2c-12.8,51.4-64.9,82.7-116.3,69.9C21.3,176.3-10,124.2,2.9,72.8
				C15.7,21.4,67.8-9.9,119.2,2.9C170.6,15.7,201.9,67.8,189.1,119.2L189.1,119.2z"/>
			<path id="Shape" class="st1" d="M138.3,82.3c1.9-12.8-7.8-19.6-21.1-24.2l4.3-17.3L111,38.2L106.8,55c-2.8-0.7-5.6-1.3-8.4-2
				l4.2-17L92,33.5l-4.3,17.3c-2.3-0.5-4.5-1-6.7-1.6l0-0.1l-14.5-3.6l-2.8,11.2c0,0,7.8,1.8,7.6,1.9c4.3,1.1,5,3.9,4.9,6.1
				l-4.9,19.7c0.3,0.1,0.7,0.2,1.1,0.4c-0.4-0.1-0.7-0.2-1.1-0.3l-6.9,27.6c-0.5,1.3-1.8,3.2-4.8,2.5c0.1,0.2-7.7-1.9-7.7-1.9
				l-5.2,12.1l13.7,3.4c2.5,0.6,5,1.3,7.5,1.9l-4.4,17.5l10.5,2.6l4.3-17.3c2.9,0.8,5.7,1.5,8.4,2.2l-4.3,17.2L93,155l4.4-17.5
				c18,3.4,31.5,2,37.2-14.2c4.6-13.1-0.2-20.6-9.7-25.5C131.7,96.2,136.9,91.7,138.3,82.3L138.3,82.3z M114.3,116.1
				c-3.3,13.1-25.3,6-32.4,4.2l5.8-23.2C94.8,98.9,117.7,102.4,114.3,116.1z M117.5,82.1c-3,11.9-21.3,5.9-27.2,4.4l5.2-21
				C101.5,67,120.6,69.7,117.5,82.1z"/>
		</g>
		<path id="Path_1_" class="st2" d="M27.1,115.2H4c-4.3,0-8.2-2.4-10-6.3c-1.9-3.8-1.4-8.3,1.1-11.7l39.5-52c3-4,8.4-5.5,13.1-3.6
			c4.6,1.9,7.4,6.6,6.9,11.6l-2.6,23.6h23.1c4.3,0,8.2,2.4,10,6.3c1.8,3.8,1.4,8.3-1.2,11.7l-39.5,52c-2.1,2.8-5.4,4.4-8.9,4.4
			c-1.4,0-2.9-0.3-4.2-0.8c-4.6-1.9-7.4-6.6-6.9-11.6L27.1,115.2z"/>
	</g>
</g>
</svg>
